<?xml version="1.0" encoding="UTF-8"?>
<svg version="1.1" xmlns="http://www.w3.org/2000/svg" width="460" height="265">
<path d="M0 0 C1.77314074 1.5361895 3.52251147 3.10014697 5.25 4.6875 C5.73952148 5.13464355 6.22904297 5.58178711 6.73339844 6.04248047 C19.12468297 17.48693571 27.09760479 30.56164381 34.25 45.6875 C34.58 46.3475 34.91 47.0075 35.25 47.6875 C37.17046168 48.22884931 37.17046168 48.22884931 39.4375 48.5625 C45.45459039 49.80215412 50.277217 52.67267747 54.19137573 57.50680542 C56.72316962 62.72213003 55.93641212 69.01126525 55.87890625 74.69140625 C55.87973632 76.17626621 55.88220089 77.66112607 55.88621521 79.14598083 C55.8890694 82.25718888 55.87442318 85.36767567 55.84692383 88.47875977 C55.81304906 92.43037789 55.81879247 96.38068962 55.8375864 100.3323679 C55.84826112 103.4014689 55.83912151 106.47027661 55.82420158 109.53935051 C55.81908144 110.99391745 55.81942502 112.44851587 55.82574654 113.90307808 C55.86034437 126.6594706 53.27492391 137.70154331 47.3125 149 C46.96622559 149.67224609 46.61995117 150.34449219 46.26318359 151.03710938 C43.8137963 155.74194086 41.31979438 160.35367264 38.25 164.6875 C37.59 164.6875 36.93 164.6875 36.25 164.6875 C35.96125 165.47125 35.6725 166.255 35.375 167.0625 C34.25 169.6875 34.25 169.6875 32.25 171.6875 C33.45398438 172.01363281 34.65796875 172.33976563 35.8984375 172.67578125 C37.47412334 173.11659812 39.04963532 173.55803676 40.625 174 C41.4190625 174.21333984 42.213125 174.42667969 43.03125 174.64648438 C43.79179687 174.86240234 44.55234375 175.07832031 45.3359375 175.30078125 C46.3885376 175.59142456 46.3885376 175.59142456 47.46240234 175.88793945 C49.25 176.6875 49.25 176.6875 51.25 179.6875 C51.3125 181.625 51.3125 181.625 50.25 183.6875 C43.21974504 188.28420517 36.95613547 190.01055271 28.6015625 190.98632812 C25.67041005 191.34099757 23.06189052 191.75020316 20.25 192.6875 C17.96232869 193.0472321 15.6698704 193.37698899 13.375 193.6875 C9.300944 194.24108723 5.27205483 194.83109289 1.25 195.6875 C1.25 196.3475 1.25 197.0075 1.25 197.6875 C-8.19818145 201.95134896 -17.57750923 205.93536121 -27.625 208.5625 C-28.34727783 208.75287842 -29.06955566 208.94325684 -29.8137207 209.1394043 C-42.24537101 212.22258732 -54.44117794 213.0955865 -67.1875 213.0625 C-67.97791687 213.06195618 -68.76833374 213.06141235 -69.58270264 213.06085205 C-91.98860388 212.99017811 -113.80432653 209.32704103 -133.796875 198.71875 C-138.85466022 196.0482394 -143.66603931 195.36856489 -149.28515625 194.93359375 C-155.43743516 194.31934086 -161.52791749 192.69243706 -167.5625 191.375 C-168.52220703 191.17455078 -169.48191406 190.97410156 -170.47070312 190.76757812 C-176.44927852 189.44943488 -181.39299791 187.66079465 -186.75 184.6875 C-187 182.375 -187 182.375 -186.75 179.6875 C-184.00320739 177.16698779 -181.37102139 176.06042125 -177.8125 175.0625 C-176.97847656 174.82273438 -176.14445313 174.58296875 -175.28515625 174.3359375 C-172.7855728 173.69659874 -170.28447218 173.16809759 -167.75 172.6875 C-169.73194094 169.32324994 -171.81426506 166.04097492 -173.96044922 162.77929688 C-187.19983247 142.55107358 -191.34782338 121.18890959 -186.625 97.125 C-185.13340118 91.83660418 -182.65980792 87.56463543 -178.75 83.6875 C-177.76 83.1925 -177.76 83.1925 -176.75 82.6875 C-176.20577473 80.4813251 -176.20577473 80.4813251 -175.92578125 77.7890625 C-175.78817383 76.76143799 -175.65056641 75.73381348 -175.50878906 74.67504883 C-175.36151367 73.56540771 -175.21423828 72.4557666 -175.0625 71.3125 C-170.80119447 42.38796143 -156.84023552 17.27404516 -133.5859375 -0.859375 C-94.01953316 -29.33147738 -38.84878424 -30.72282077 0 0 Z M35.25 48.6875 C36.25 51.6875 36.25 51.6875 36.25 51.6875 Z M36.25 51.6875 C37.25 54.6875 37.25 54.6875 37.25 54.6875 Z M37.25 55.6875 C38.25 57.6875 38.25 57.6875 38.25 57.6875 Z M38.25 57.6875 C38.25 59.3375 38.25 60.9875 38.25 62.6875 C38.58 62.6875 38.91 62.6875 39.25 62.6875 C39.25 61.0375 39.25 59.3875 39.25 57.6875 C38.92 57.6875 38.59 57.6875 38.25 57.6875 Z M39.25 63.6875 C40.25 67.6875 40.25 67.6875 40.25 67.6875 Z M40.25 70.6875 C40.25 72.3375 40.25 73.9875 40.25 75.6875 C40.58 75.6875 40.91 75.6875 41.25 75.6875 C41.25 74.0375 41.25 72.3875 41.25 70.6875 C40.92 70.6875 40.59 70.6875 40.25 70.6875 Z M-175.75 91.6875 C-175.75 94.6575 -175.75 97.6275 -175.75 100.6875 C-175.42 100.6875 -175.09 100.6875 -174.75 100.6875 C-174.75 97.7175 -174.75 94.7475 -174.75 91.6875 C-175.08 91.6875 -175.41 91.6875 -175.75 91.6875 Z M-174.75 101.6875 C-173.75 104.6875 -173.75 104.6875 -173.75 104.6875 Z M-173.75 105.6875 C-172.75 109.6875 -172.75 109.6875 -172.75 109.6875 Z M-172.75 110.6875 C-171.75 112.6875 -171.75 112.6875 -171.75 112.6875 Z " fill="#A1CCE4" transform="translate(315.75,51.3125)"/>
<path d="M0 0 C7.94509314 5.76745133 11.64135208 12.21547418 13.21484375 21.80078125 C13.30121094 22.42984375 13.38757813 23.05890625 13.4765625 23.70703125 C1.95492241 29.26283991 1.95492241 29.26283991 -3.5234375 29.70703125 C-3.5234375 30.36703125 -3.5234375 31.02703125 -3.5234375 31.70703125 C-2.2653125 31.95453125 -1.0071875 32.20203125 0.2890625 32.45703125 C5.87889059 33.68536927 11.14441424 35.653905 16.4765625 37.70703125 C13.27998914 39.83808016 12.34448113 39.93856666 8.6640625 40.08203125 C1.6304278 40.58173988 -4.83131852 42.60658515 -11.5234375 44.70703125 C-11.1934375 45.69703125 -10.8634375 46.68703125 -10.5234375 47.70703125 C-11.5134375 48.69703125 -11.5134375 48.69703125 -12.5234375 49.70703125 C-11.5953125 49.06765625 -10.6671875 48.42828125 -9.7109375 47.76953125 C-6.5234375 45.70703125 -6.5234375 45.70703125 -3.5234375 44.70703125 C-5.04015714 49.25719018 -8.69234803 51.20760389 -12.5234375 53.70703125 C-8.077354 55.73195822 -3.63595875 56.57402379 1.13671875 57.43359375 C1.96360703 57.58613617 2.7904953 57.73867859 3.6424408 57.89584351 C5.38429619 58.21594917 7.12662365 58.53349546 8.86938477 58.84863281 C11.53463253 59.33122912 14.19802688 59.82319322 16.86132812 60.31640625 C18.5571897 60.62685958 20.25315007 60.93677384 21.94921875 61.24609375 C22.74409195 61.3929361 23.53896515 61.53977844 24.35792542 61.69107056 C27.80813447 62.31075119 30.95842353 62.70703125 34.4765625 62.70703125 C36.7582249 63.19308961 39.00133995 63.7760226 41.2578125 64.3671875 C43.76332931 64.75095504 45.07682974 64.48916637 47.4765625 63.70703125 C48.43046875 63.40667969 49.384375 63.10632813 50.3671875 62.796875 C57.88753698 60.21722024 64.83390639 57.22254433 71.79394531 53.38647461 C76.40983614 50.93033982 80.25507725 50.10066872 85.4765625 49.70703125 C85.60229904 56.7240972 85.59387471 63.73433021 85.50976562 70.75195312 C85.48693314 73.47170514 85.48301462 76.18514521 85.50585938 78.90429688 C85.68510458 106.96951559 85.68510458 106.96951559 78.73364258 114.62597656 C76.32762985 116.80696202 73.85247368 118.75261764 71.15771484 120.56396484 C68.96152682 122.05721961 67.08927767 123.82084873 65.1640625 125.64453125 C63.94256197 126.67452534 62.71342169 127.695532 61.4765625 128.70703125 C60.785625 129.28710938 60.0946875 129.8671875 59.3828125 130.46484375 C37.06733602 148.6158123 10.50233106 154.23238451 -17.5234375 152.70703125 C-40.63782914 150.11629845 -63.64349484 137.48621775 -78.5234375 119.70703125 C-78.5234375 119.04703125 -78.5234375 118.38703125 -78.5234375 117.70703125 C-79.1834375 117.70703125 -79.8434375 117.70703125 -80.5234375 117.70703125 C-82.21176672 115.51159595 -83.75633984 113.33005838 -85.2734375 111.01953125 C-85.94234009 110.00644897 -85.94234009 110.00644897 -86.62475586 108.97290039 C-91.68700337 101.13792395 -96.28441705 93.0762533 -97.5234375 83.70703125 C-94.0584375 82.71703125 -94.0584375 82.71703125 -90.5234375 81.70703125 C-90.5234375 81.04703125 -90.5234375 80.38703125 -90.5234375 79.70703125 C-89.46382812 79.30484375 -89.46382812 79.30484375 -88.3828125 78.89453125 C-81.21959904 76.15883164 -74.08384792 73.35835363 -66.9609375 70.51953125 C-66.09243164 70.17470703 -65.22392578 69.82988281 -64.32910156 69.47460938 C-63.50506836 69.14525391 -62.68103516 68.81589844 -61.83203125 68.4765625 C-61.09782959 68.18370361 -60.36362793 67.89084473 -59.60717773 67.58911133 C-56.49577298 66.28787826 -56.49577298 66.28787826 -53.5234375 64.70703125 C-52.7068278 61.94039356 -52.7068278 61.94039356 -52.5234375 58.70703125 C-52.41902344 57.57523438 -52.31460938 56.4434375 -52.20703125 55.27734375 C-52.12582031 54.14039063 -52.04460937 53.0034375 -51.9609375 51.83203125 C-51.87714844 50.67960937 -51.79335937 49.5271875 -51.70703125 48.33984375 C-51.61615234 47.03660156 -51.61615234 47.03660156 -51.5234375 45.70703125 C-52.26464844 45.59746094 -53.00585938 45.48789063 -53.76953125 45.375 C-61.13387566 44.26629209 -68.46346757 43.03577635 -75.78491211 41.67260742 C-79.11595209 41.06643221 -82.12211402 40.70703125 -85.5234375 40.70703125 C-85.5735498 41.29194336 -85.62366211 41.87685547 -85.67529297 42.47949219 C-85.90794985 45.13948306 -86.15306186 47.79818474 -86.3984375 50.45703125 C-86.47707031 51.37742188 -86.55570313 52.2978125 -86.63671875 53.24609375 C-86.72050781 54.13554687 -86.80429688 55.025 -86.890625 55.94140625 C-86.96394043 56.75834961 -87.03725586 57.57529297 -87.11279297 58.41699219 C-87.54452894 60.82465174 -88.32670134 62.58612517 -89.5234375 64.70703125 C-90.1834375 64.70703125 -90.8434375 64.70703125 -91.5234375 64.70703125 C-93.61007114 58.20164401 -94.02426701 52.42905637 -92.5234375 45.70703125 C-90.5234375 42.76953125 -90.5234375 42.76953125 -88.5234375 40.70703125 C-88.38808594 40.07667969 -88.25273437 39.44632813 -88.11328125 38.796875 C-86.92379091 34.5824556 -82.97918209 32.13508709 -79.5234375 29.70703125 C-72.7457204 26.27709562 -66.31193247 24.552953 -58.7109375 24.64453125 C-57.73511719 24.65355469 -56.75929687 24.66257812 -55.75390625 24.671875 C-54.64982422 24.68927734 -54.64982422 24.68927734 -53.5234375 24.70703125 C-53.0284375 26.19203125 -53.0284375 26.19203125 -52.5234375 27.70703125 C-53.1834375 28.36703125 -53.8434375 29.02703125 -54.5234375 29.70703125 C-53.5334375 29.70703125 -52.5434375 29.70703125 -51.5234375 29.70703125 C-50.8634375 28.38703125 -50.2034375 27.06703125 -49.5234375 25.70703125 C-49.8534375 25.70703125 -50.1834375 25.70703125 -50.5234375 25.70703125 C-50.5234375 23.39703125 -50.5234375 21.08703125 -50.5234375 18.70703125 C-49.5334375 19.36703125 -48.5434375 20.02703125 -47.5234375 20.70703125 C-47.5234375 21.36703125 -47.5234375 22.02703125 -47.5234375 22.70703125 C-43.59661428 21.12716981 -41.28028722 18.56521791 -38.3984375 15.51953125 C-29.25038394 6.12086715 -13.94422262 -7.14479518 0 0 Z M-15.5234375 45.70703125 C-15.8534375 46.36703125 -16.1834375 47.02703125 -16.5234375 47.70703125 C-15.5334375 47.37703125 -14.5434375 47.04703125 -13.5234375 46.70703125 C-14.1834375 46.37703125 -14.8434375 46.04703125 -15.5234375 45.70703125 Z " fill="#9BCDE8" transform="translate(252.5234375,79.29296875)"/>
<path d="M0 0 C0 0.66 0 1.32 0 2 C1.01320312 1.87431641 1.01320312 1.87431641 2.046875 1.74609375 C2.93890625 1.64425781 3.8309375 1.54242188 4.75 1.4375 C5.63171875 1.33308594 6.5134375 1.22867188 7.421875 1.12109375 C10 1 10 1 11.85351562 1.47924805 C14.26167654 2.06348454 16.4452286 2.1597516 18.921875 2.2109375 C19.86546875 2.23929688 20.8090625 2.26765625 21.78125 2.296875 C23.74461096 2.34854239 25.70817824 2.39293382 27.671875 2.4296875 C33.76452917 2.62836101 38.41730683 3.52615255 44 6 C44 6.66 44 7.32 44 8 C76.65516492 18.14231004 106.85896574 21.07445109 139 7 C140.24657416 6.28599434 141.49265339 5.57112401 142.73828125 4.85546875 C147.92274142 2.20069156 153.2185447 2.3664185 158.9375 2.3125 C161.00919283 2.27063481 163.08081883 2.22526248 165.15234375 2.17578125 C166.05976318 2.16458252 166.96718262 2.15338379 167.90209961 2.1418457 C169.98736092 2.23190415 169.98736092 2.23190415 171 1 C172.64340867 0.90145345 174.2911461 0.87027589 175.9375 0.875 C176.83339844 0.87242187 177.72929687 0.86984375 178.65234375 0.8671875 C181 1 181 1 183 2 C183.33 1.01 183.66 0.02 184 -1 C192.56892139 -0.18391225 201.38639881 0.71734933 209 5 C209.9375 7.6875 209.9375 7.6875 210 10 C202.70822876 16.60816769 194.67882463 17.49710531 185.29296875 18.5703125 C182.00246211 18.89316825 182.00246211 18.89316825 179 20 C176.71232869 20.3597321 174.4198704 20.68948899 172.125 21 C168.050944 21.55358723 164.02205483 22.14359289 160 23 C160 23.66 160 24.32 160 25 C150.55181855 29.26384896 141.17249077 33.24786121 131.125 35.875 C130.40272217 36.06537842 129.68044434 36.25575684 128.9362793 36.4519043 C116.50462899 39.53508732 104.30882206 40.4080865 91.5625 40.375 C90.77208313 40.37445618 89.98166626 40.37391235 89.16729736 40.37335205 C66.76139612 40.30267811 44.94567347 36.63954103 24.953125 26.03125 C19.89533978 23.3607394 15.08396069 22.68106489 9.46484375 22.24609375 C3.31256484 21.63184086 -2.77791749 20.00493706 -8.8125 18.6875 C-9.77220703 18.48705078 -10.73191406 18.28660156 -11.72070312 18.08007812 C-17.69927852 16.76193488 -22.64299791 14.97329465 -28 12 C-28.25 9.6875 -28.25 9.6875 -28 7 C-23.95132927 3.30937498 -19.17583819 2.35846779 -14 1 C-13.18273437 0.77957031 -12.36546875 0.55914062 -11.5234375 0.33203125 C-7.37035559 -0.70276675 -4.19709555 -1.35390179 0 0 Z " fill="#2A2A2A" transform="translate(157,224)"/>
<path d="M0 0 C7.94509314 5.76745133 11.64135208 12.21547418 13.21484375 21.80078125 C13.30121094 22.42984375 13.38757813 23.05890625 13.4765625 23.70703125 C1.95492241 29.26283991 1.95492241 29.26283991 -3.5234375 29.70703125 C-3.5234375 30.36703125 -3.5234375 31.02703125 -3.5234375 31.70703125 C-1.5434375 32.20203125 -1.5434375 32.20203125 0.4765625 32.70703125 C0.4765625 33.36703125 0.4765625 34.02703125 0.4765625 34.70703125 C-0.38066406 34.88878906 -1.23789063 35.07054687 -2.12109375 35.2578125 C-9.45324845 36.76849824 -9.45324845 36.76849824 -16.3984375 39.45703125 C-20.22291707 40.98682308 -22.52761126 40.40606468 -26.5234375 39.70703125 C-26.48976074 40.5477417 -26.45608398 41.38845215 -26.42138672 42.25463867 C-25.80674184 65.70285808 -25.80674184 65.70285808 -30.3203125 72.35546875 C-34.468917 76.37167098 -39.23840853 79.20482855 -44.44873047 81.64916992 C-46.60943197 82.66254485 -46.60943197 82.66254485 -48.56689453 84.3449707 C-51.18814661 86.16977296 -53.09389786 85.74893395 -56.15234375 85.234375 C-60.65765919 84.23236909 -65.09441331 83.00154383 -69.5234375 81.70703125 C-69.8534375 82.36703125 -70.1834375 83.02703125 -70.5234375 83.70703125 C-71.0184375 82.71703125 -71.0184375 82.71703125 -71.5234375 81.70703125 C-72.5134375 81.70703125 -73.5034375 81.70703125 -74.5234375 81.70703125 C-74.5234375 81.04703125 -74.5234375 80.38703125 -74.5234375 79.70703125 C-75.1834375 79.70703125 -75.8434375 79.70703125 -76.5234375 79.70703125 C-76.8534375 80.69703125 -77.1834375 81.68703125 -77.5234375 82.70703125 C-77.5234375 82.04703125 -77.5234375 81.38703125 -77.5234375 80.70703125 C-78.8434375 80.37703125 -80.1634375 80.04703125 -81.5234375 79.70703125 C-81.38061523 77.86157227 -81.38061523 77.86157227 -80.5234375 75.70703125 C-78.05493164 74.38256836 -78.05493164 74.38256836 -74.80859375 73.234375 C-73.64779297 72.80962891 -72.48699219 72.38488281 -71.29101562 71.94726562 C-70.06833984 71.51736328 -68.84566406 71.08746094 -67.5859375 70.64453125 C-65.17782291 69.78749206 -62.77269465 68.92200079 -60.37109375 68.046875 C-58.7624646 67.48021118 -58.7624646 67.48021118 -57.12133789 66.90209961 C-54.24187492 65.85244957 -54.24187492 65.85244957 -52.5234375 62.70703125 C-52.1608258 60.77958756 -52.1608258 60.77958756 -52.109375 58.6953125 C-52.07070312 57.93798828 -52.03203125 57.18066406 -51.9921875 56.40039062 C-51.94578125 55.22186523 -51.94578125 55.22186523 -51.8984375 54.01953125 C-51.85976562 53.22224609 -51.82109375 52.42496094 -51.78125 51.60351562 C-51.68711256 49.6383965 -51.60419118 47.67274585 -51.5234375 45.70703125 C-52.26464844 45.59746094 -53.00585938 45.48789063 -53.76953125 45.375 C-61.13387566 44.26629209 -68.46346757 43.03577635 -75.78491211 41.67260742 C-79.11595209 41.06643221 -82.12211402 40.70703125 -85.5234375 40.70703125 C-85.5735498 41.29194336 -85.62366211 41.87685547 -85.67529297 42.47949219 C-85.90794985 45.13948306 -86.15306186 47.79818474 -86.3984375 50.45703125 C-86.47707031 51.37742188 -86.55570313 52.2978125 -86.63671875 53.24609375 C-86.72050781 54.13554687 -86.80429688 55.025 -86.890625 55.94140625 C-86.96394043 56.75834961 -87.03725586 57.57529297 -87.11279297 58.41699219 C-87.54452894 60.82465174 -88.32670134 62.58612517 -89.5234375 64.70703125 C-90.1834375 64.70703125 -90.8434375 64.70703125 -91.5234375 64.70703125 C-93.61007114 58.20164401 -94.02426701 52.42905637 -92.5234375 45.70703125 C-90.5234375 42.76953125 -90.5234375 42.76953125 -88.5234375 40.70703125 C-88.38808594 40.07667969 -88.25273437 39.44632813 -88.11328125 38.796875 C-86.92379091 34.5824556 -82.97918209 32.13508709 -79.5234375 29.70703125 C-72.7457204 26.27709562 -66.31193247 24.552953 -58.7109375 24.64453125 C-57.73511719 24.65355469 -56.75929687 24.66257812 -55.75390625 24.671875 C-54.64982422 24.68927734 -54.64982422 24.68927734 -53.5234375 24.70703125 C-53.0284375 26.19203125 -53.0284375 26.19203125 -52.5234375 27.70703125 C-53.1834375 28.36703125 -53.8434375 29.02703125 -54.5234375 29.70703125 C-53.5334375 29.70703125 -52.5434375 29.70703125 -51.5234375 29.70703125 C-50.8634375 28.38703125 -50.2034375 27.06703125 -49.5234375 25.70703125 C-49.8534375 25.70703125 -50.1834375 25.70703125 -50.5234375 25.70703125 C-50.5234375 23.39703125 -50.5234375 21.08703125 -50.5234375 18.70703125 C-49.5334375 19.36703125 -48.5434375 20.02703125 -47.5234375 20.70703125 C-47.5234375 21.36703125 -47.5234375 22.02703125 -47.5234375 22.70703125 C-43.59661428 21.12716981 -41.28028722 18.56521791 -38.3984375 15.51953125 C-29.25038394 6.12086715 -13.94422262 -7.14479518 0 0 Z " fill="#64B2DB" transform="translate(252.5234375,79.29296875)"/>
<path d="M0 0 C9.03278653 5.382866 16.94354495 14.53072083 20.01953125 24.76171875 C20.11234375 25.2928125 20.20515625 25.82390625 20.30078125 26.37109375 C21.37005859 26.06365234 21.37005859 26.06365234 22.4609375 25.75 C27.74054874 24.26488728 32.84789241 22.97697029 38.30078125 22.37109375 C34.49726712 28.19775369 30.54060228 33.85331248 26.30078125 39.37109375 C26.63078125 39.70109375 26.96078125 40.03109375 27.30078125 40.37109375 C28.11482422 39.59572266 28.11482422 39.59572266 28.9453125 38.8046875 C29.66074219 38.14597656 30.37617188 37.48726562 31.11328125 36.80859375 C31.82097656 36.14730469 32.52867187 35.48601562 33.2578125 34.8046875 C33.93199219 34.33160156 34.60617187 33.85851562 35.30078125 33.37109375 C36.78578125 33.86609375 36.78578125 33.86609375 38.30078125 34.37109375 C37.89085937 34.91378906 37.4809375 35.45648438 37.05859375 36.015625 C36.51976562 36.73105469 35.9809375 37.44648437 35.42578125 38.18359375 C34.89210938 38.89128906 34.3584375 39.59898438 33.80859375 40.328125 C32.59263344 41.97565672 31.43661984 43.66733586 30.30078125 45.37109375 C34.45462029 46.67425894 37.95225038 47.49899172 42.30078125 47.37109375 C42.63078125 47.70109375 42.96078125 48.03109375 43.30078125 48.37109375 C44.85665868 48.66753111 46.42313312 48.90890269 47.9921875 49.125 C48.93642578 49.25712891 49.88066406 49.38925781 50.85351562 49.52539062 C51.84673828 49.66009766 52.83996094 49.79480469 53.86328125 49.93359375 C54.86037109 50.07216797 55.85746094 50.21074219 56.88476562 50.35351562 C59.35627841 50.69645281 61.8282667 51.03546829 64.30078125 51.37109375 C64.30078125 52.69109375 64.30078125 54.01109375 64.30078125 55.37109375 C64.96078125 55.70109375 65.62078125 56.03109375 66.30078125 56.37109375 C66.30078125 57.36109375 66.30078125 58.35109375 66.30078125 59.37109375 C62.61770129 61.17195037 58.92858892 62.96010093 55.23828125 64.74609375 C54.19994141 65.25398438 53.16160156 65.761875 52.09179688 66.28515625 C46.87770823 68.80116093 41.93419649 71.01815685 36.30078125 72.37109375 C35.64078125 72.59796875 34.98078125 72.82484375 34.30078125 73.05859375 C31.21625265 73.54055134 28.36125295 72.87189821 25.30078125 72.37109375 C24.31078125 72.37109375 23.32078125 72.37109375 22.30078125 72.37109375 C19.708581 71.8147768 17.13087706 71.22893167 14.55078125 70.62109375 C6.11600758 68.6777023 -2.36222246 67.15234257 -10.90527344 65.76660156 C-15.67474178 64.97583465 -20.1561874 64.09378685 -24.69921875 62.37109375 C-22.56195983 60.15467709 -20.43062801 58.15871967 -18.01171875 56.24609375 C-15.63164087 54.58018421 -15.63164087 54.58018421 -14.69921875 52.37109375 C-17.66921875 54.35109375 -20.63921875 56.33109375 -23.69921875 58.37109375 C-24.68921875 57.87609375 -24.68921875 57.87609375 -25.69921875 57.37109375 C-24.37921875 56.71109375 -23.05921875 56.05109375 -21.69921875 55.37109375 C-21.69921875 54.71109375 -21.69921875 54.05109375 -21.69921875 53.37109375 C-22.68921875 53.04109375 -23.67921875 52.71109375 -24.69921875 52.37109375 C-24.04695313 52.17773438 -23.3946875 51.984375 -22.72265625 51.78515625 C-21.41167969 51.39457031 -21.41167969 51.39457031 -20.07421875 50.99609375 C-19.15253906 50.7228125 -18.23085937 50.44953125 -17.28125 50.16796875 C-15.41970333 49.59345208 -13.58104461 48.94285685 -11.76171875 48.24609375 C-7.85420639 47.12966165 -4.0377531 46.88470803 0.0078125 46.6171875 C2.26335678 46.61772221 2.26335678 46.61772221 3.30078125 45.37109375 C-2.63921875 43.39109375 -8.57921875 41.41109375 -14.69921875 39.37109375 C-14.69921875 38.71109375 -14.69921875 38.05109375 -14.69921875 37.37109375 C-6.77921875 34.40109375 -6.77921875 34.40109375 1.30078125 31.37109375 C0.06534835 21.7621712 -3.43479346 15.44168153 -10.44921875 8.74609375 C-16.58885183 6.14855668 -21.7770255 6.37103921 -28.06640625 8.5234375 C-38.48374598 13.26808332 -46.12211468 20.49278719 -53.94140625 28.734375 C-55.69921875 30.37109375 -55.69921875 30.37109375 -57.69921875 30.37109375 C-57.31532645 25.32431445 -54.61884161 22.55323606 -51.26171875 19.05859375 C-50.72111816 18.48681396 -50.18051758 17.91503418 -49.62353516 17.32592773 C-36.51352086 3.69805824 -19.46587241 -9.20726207 0 0 Z M-26.69921875 53.37109375 C-26.03921875 53.70109375 -25.37921875 54.03109375 -24.69921875 54.37109375 C-25.68921875 54.37109375 -26.67921875 54.37109375 -27.69921875 54.37109375 C-27.36921875 54.04109375 -27.03921875 53.71109375 -26.69921875 53.37109375 Z " fill="#9ECFE9" transform="translate(263.69921875,71.62890625)"/>
<path d="M0 0 C0.12400492 7.04443336 0.11507313 14.08152792 0.02880859 21.12646484 C0.00914158 23.77084451 0.0106992 26.40598601 0.04541016 29.04931641 C0.32799454 54.21984449 0.32799454 54.21984449 -4.8046875 59.953125 C-7.81669353 62.46101545 -11.14244023 64.15991855 -14.67773438 65.81738281 C-19.13380858 68.08664516 -23.11065418 71.12098021 -27.1875 74 C-28.78303761 75.08645126 -30.38057043 76.16998056 -31.98046875 77.25 C-34.08664353 78.672261 -36.12769999 80.10041217 -38.1262207 81.671875 C-40 83 -40 83 -42 83 C-41.90676604 76.54427366 -41.79935208 70.08888867 -41.68261719 63.63354492 C-41.64461044 61.44284251 -41.60971128 59.25208369 -41.578125 57.0612793 C-41.25341271 34.81341368 -41.25341271 34.81341368 -39.4597168 25.48681641 C-39.04941363 23.26730072 -38.93005871 21.21978938 -38.85546875 18.97265625 C-37.89407566 15.63192502 -37.49683694 15.30921512 -34.67578125 13.55859375 C-33.2350444 12.8240676 -31.77937103 12.11833823 -30.3125 11.4375 C-29.55316162 11.06109375 -28.79382324 10.6846875 -28.01147461 10.296875 C-21.12513384 6.92807968 -14.08821221 3.91438975 -7 1 C-4.53721199 -0.231394 -2.7204945 -0.07159196 0 0 Z " fill="#2E97CE" transform="translate(338,129)"/>
<path d="M0 0 C0.33 0 0.66 0 1 0 C1.66 3.96 2.32 7.92 3 12 C3.33 12 3.66 12 4 12 C4.62479572 15.59257541 5.06150953 18.80056423 4.875 22.4375 C4.79209371 25.24443417 4.79209371 25.24443417 7 28 C7.144375 29.11375 7.28875 30.2275 7.4375 31.375 C8.02795146 35.18013162 8.98378897 36.78899725 11 40 C11.57941737 41.49354671 12.13963811 42.99459188 12.6875 44.5 C19.3144666 61.39374441 31.84706226 75.8727709 46.27734375 86.6171875 C46.84582031 87.07351562 47.41429687 87.52984375 48 88 C48 88.33 48 88.66 48 89 C44.33534223 89.35836912 40.66873549 89.68614729 37 90 C35.94393555 90.09104004 34.88787109 90.18208008 33.79980469 90.27587891 C12.42126349 91.88103871 12.42126349 91.88103871 7.55859375 87.74609375 C5.20477347 84.60630218 3.60662663 81.57525269 2 78 C0.72013397 75.93015654 -0.57120993 73.86735778 -1.875 71.8125 C-8.46698298 60.10526002 -10.38359367 48.01146892 -10.3125 34.6875 C-10.30686035 33.58607666 -10.3012207 32.48465332 -10.29541016 31.34985352 C-10.11269363 19.1123692 -9.02774043 9.02774043 0 0 Z M5 28 C6 30 6 30 6 30 Z " fill="#FDFDFD" transform="translate(138,134)"/>
<path d="M0 0 C2.64 0.33 5.28 0.66 8 1 C8 1.66 8 2.32 8 3 C7.01 3 6.02 3 5 3 C5 3.66 5 4.32 5 5 C-4.44818145 9.26384896 -13.82750923 13.24786121 -23.875 15.875 C-24.59727783 16.06537842 -25.31955566 16.25575684 -26.0637207 16.4519043 C-38.49537101 19.53508732 -50.69117794 20.4080865 -63.4375 20.375 C-64.22791687 20.37445618 -65.01833374 20.37391235 -65.83270264 20.37335205 C-87.85980225 20.30387295 -113.03013952 17.37749761 -132 5 C-132.33 4.34 -132.66 3.68 -133 3 C-131.05466873 3.00333092 -131.05466873 3.00333092 -129.07003784 3.00672913 C-116.80113478 3.02707004 -104.53223517 3.04202467 -92.26331902 3.05181217 C-85.95695158 3.05701329 -79.65059784 3.0640602 -73.34423828 3.07543945 C-67.24934887 3.08636732 -61.15447258 3.09229767 -55.05957413 3.09487724 C-52.74337686 3.09671374 -50.42718025 3.10029971 -48.11098862 3.10573006 C-31.8437072 3.15538042 -31.8437072 3.15538042 -15.61047363 2.22485352 C-12.26469633 1.93666451 -8.98200094 1.90019999 -5.625 1.9375 C-4.54476562 1.94652344 -3.46453125 1.95554688 -2.3515625 1.96484375 C-1.57554687 1.97644531 -0.79953125 1.98804688 0 2 C0 1.34 0 0.68 0 0 Z " fill="#FDFDFD" transform="translate(312,244)"/>
<path d="M0 0 C9.03278653 5.382866 16.94354495 14.53072083 20.01953125 24.76171875 C20.11234375 25.2928125 20.20515625 25.82390625 20.30078125 26.37109375 C21.37005859 26.06365234 21.37005859 26.06365234 22.4609375 25.75 C27.74054874 24.26488728 32.84789241 22.97697029 38.30078125 22.37109375 C34.14438346 28.81379936 29.67159729 34.91463082 24.92578125 40.93359375 C24.28511719 41.75150391 23.64445312 42.56941406 22.984375 43.41210938 C21.42604799 45.40072071 19.86483483 47.38698557 18.30078125 49.37109375 C11.17306878 47.71145482 4.25979721 45.50199468 -2.69921875 43.24609375 C-3.85550781 42.87355469 -5.01179688 42.50101563 -6.203125 42.1171875 C-9.03591327 41.20414004 -11.86791048 40.28871821 -14.69921875 39.37109375 C-14.69921875 38.71109375 -14.69921875 38.05109375 -14.69921875 37.37109375 C-6.77921875 34.40109375 -6.77921875 34.40109375 1.30078125 31.37109375 C0.06534835 21.7621712 -3.43479346 15.44168153 -10.44921875 8.74609375 C-16.58885183 6.14855668 -21.7770255 6.37103921 -28.06640625 8.5234375 C-38.48374598 13.26808332 -46.12211468 20.49278719 -53.94140625 28.734375 C-55.69921875 30.37109375 -55.69921875 30.37109375 -57.69921875 30.37109375 C-57.31532645 25.32431445 -54.61884161 22.55323606 -51.26171875 19.05859375 C-50.72111816 18.48681396 -50.18051758 17.91503418 -49.62353516 17.32592773 C-36.51352086 3.69805824 -19.46587241 -9.20726207 0 0 Z " fill="#FAFCFD" transform="translate(263.69921875,71.62890625)"/>
<path d="M0 0 C4.98466525 3.6184364 9.1070057 7.95737137 11.4765625 13.70703125 C11.7890625 17.20703125 11.7890625 17.20703125 11.4765625 19.70703125 C10.1565625 19.37703125 8.8365625 19.04703125 7.4765625 18.70703125 C7.4765625 19.36703125 7.4765625 20.02703125 7.4765625 20.70703125 C5.1665625 20.70703125 2.8565625 20.70703125 0.4765625 20.70703125 C0.4765625 21.36703125 0.4765625 22.02703125 0.4765625 22.70703125 C-1.6082178 25.27039319 -3.53911091 26.26559739 -6.6484375 27.26953125 C-8.73822019 27.91123776 -8.73822019 27.91123776 -10.5234375 28.70703125 C-10.8534375 29.36703125 -11.1834375 30.02703125 -11.5234375 30.70703125 C-12.85677083 30.04036458 -14.19010417 29.37369792 -15.5234375 28.70703125 C-16.0596875 29.20203125 -16.5959375 29.69703125 -17.1484375 30.20703125 C-20.74145736 32.47630695 -23.84159475 32.06110341 -27.8984375 31.20703125 C-28.7028125 30.95953125 -28.7028125 30.95953125 -29.5234375 30.70703125 C-29.5234375 30.04703125 -29.5234375 29.38703125 -29.5234375 28.70703125 C-30.1834375 28.70703125 -30.8434375 28.70703125 -31.5234375 28.70703125 C-31.8534375 27.05703125 -32.1834375 25.40703125 -32.5234375 23.70703125 C-36.4834375 23.70703125 -40.4434375 23.70703125 -44.5234375 23.70703125 C-39.12519378 12.91054381 -27.00928251 3.85775464 -15.87109375 -0.62109375 C-10.35503454 -2.19973299 -5.2168411 -2.67302539 0 0 Z " fill="#2A93CA" transform="translate(252.5234375,79.29296875)"/>
<path d="M0 0 C0 0.66 0 1.32 0 2 C0.92619141 1.85691406 0.92619141 1.85691406 1.87109375 1.7109375 C8.04496988 0.90278933 13.02840419 1.25467852 19 3 C19 3.66 19 4.32 19 5 C20.60875 5.185625 20.60875 5.185625 22.25 5.375 C25.45547743 5.90924624 27.27435114 6.40220584 30 8 C30.7425 8.37125 31.485 8.7425 32.25 9.125 C32.8275 9.41375 33.405 9.7025 34 10 C34 11.32 34 12.64 34 14 C34.58007812 14.19335938 35.16015625 14.38671875 35.7578125 14.5859375 C40.171875 16.05729167 44.5859375 17.52864583 49 19 C33.13767318 28.41454809 7.9693703 22.35122616 -8.8125 18.6875 C-9.77220703 18.48705078 -10.73191406 18.28660156 -11.72070312 18.08007812 C-17.69927852 16.76193488 -22.64299791 14.97329465 -28 12 C-28.25 9.6875 -28.25 9.6875 -28 7 C-23.95132927 3.30937498 -19.17583819 2.35846779 -14 1 C-13.18273437 0.77957031 -12.36546875 0.55914062 -11.5234375 0.33203125 C-7.37035559 -0.70276675 -4.19709555 -1.35390179 0 0 Z " fill="#181818" transform="translate(157,224)"/>
<path d="M0 0 C8.56892139 0.81608775 17.38639881 1.71734933 25 6 C25.9375 8.6875 25.9375 8.6875 26 11 C18.70822876 17.60816769 10.67882463 18.49710531 1.29296875 19.5703125 C-1.99753789 19.89316825 -1.99753789 19.89316825 -5 21 C-7.5631527 21.41626284 -10.11395256 21.78942265 -12.6875 22.125 C-13.37005859 22.22425781 -14.05261719 22.32351562 -14.75585938 22.42578125 C-18.96255018 22.97396192 -22.60578413 22.88695132 -26.83276367 22.24462891 C-32.06173654 21.65440351 -37.41151514 22.04930068 -42.66210938 22.21484375 C-43.56380859 22.22902344 -44.46550781 22.24320313 -45.39453125 22.2578125 C-46.61426636 22.29092529 -46.61426636 22.29092529 -47.85864258 22.32470703 C-50.49229156 21.92535084 -51.34400381 21.02721951 -53 19 C-51.01432292 19.06510417 -49.02864583 19.13020833 -47.04296875 19.1953125 C-44.68640281 19.13254462 -44.68640281 19.13254462 -42 17 C-40.28555111 16.56261304 -38.55332216 16.19151312 -36.8125 15.875 C-35.91144531 15.70742187 -35.01039063 15.53984375 -34.08203125 15.3671875 C-33.39496094 15.24601563 -32.70789063 15.12484375 -32 15 C-32 14.01 -32 13.02 -32 12 C-33.65 12 -35.3 12 -37 12 C-37 11.34 -37 10.68 -37 10 C-30.25 8.875 -30.25 8.875 -28 10 C-27.67 9.01 -27.34 8.02 -27 7 C-23.9375 5.8125 -23.9375 5.8125 -21 5 C-21 4.67 -21 4.34 -21 4 C-19.865625 3.855625 -18.73125 3.71125 -17.5625 3.5625 C-14.19222799 3.38828522 -14.19222799 3.38828522 -13 2 C-11.35659133 1.90145345 -9.7088539 1.87027589 -8.0625 1.875 C-7.16660156 1.87242187 -6.27070313 1.86984375 -5.34765625 1.8671875 C-3 2 -3 2 -1 3 C-0.67 2.01 -0.34 1.02 0 0 Z " fill="#181818" transform="translate(341,223)"/>
<path d="M0 0 C0.99 0.33 1.98 0.66 3 1 C2.59007812 1.54269531 2.18015625 2.08539063 1.7578125 2.64453125 C1.21898437 3.35996094 0.68015625 4.07539062 0.125 4.8125 C-0.40867187 5.52019531 -0.94234375 6.22789063 -1.4921875 6.95703125 C-2.70814781 8.60456297 -3.86416141 10.29624211 -5 12 C-0.84616096 13.30316519 2.65146913 14.12789797 7 14 C7.495 14.495 7.495 14.495 8 15 C9.55587743 15.29643736 11.12235187 15.53780894 12.69140625 15.75390625 C14.10776367 15.95209961 14.10776367 15.95209961 15.55273438 16.15429688 C16.54595703 16.28900391 17.53917969 16.42371094 18.5625 16.5625 C20.05813477 16.77036133 20.05813477 16.77036133 21.58398438 16.98242188 C24.05549716 17.32535906 26.52748545 17.66437454 29 18 C29 19.32 29 20.64 29 22 C28.17245209 22.02426056 28.17245209 22.02426056 27.32818604 22.04901123 C-12.25114559 20.68661656 -12.25114559 20.68661656 -50 29 C-49.67 29.66 -49.34 30.32 -49 31 C-50.258125 30.87625 -51.51625 30.7525 -52.8125 30.625 C-53.52019531 30.55539063 -54.22789062 30.48578125 -54.95703125 30.4140625 C-57 30 -57 30 -60 28 C-59.36191406 27.51789063 -58.72382813 27.03578125 -58.06640625 26.5390625 C-56.82697266 25.59160156 -56.82697266 25.59160156 -55.5625 24.625 C-54.73878906 23.99851563 -53.91507813 23.37203125 -53.06640625 22.7265625 C-50.91471908 21.16246096 -50.91471908 21.16246096 -50 19 C-54.455 21.97 -54.455 21.97 -59 25 C-59.66 24.67 -60.32 24.34 -61 24 C-59.68 23.34 -58.36 22.68 -57 22 C-57 21.34 -57 20.68 -57 20 C-57.99 19.67 -58.98 19.34 -60 19 C-59.34773437 18.80664062 -58.69546875 18.61328125 -58.0234375 18.4140625 C-56.71246094 18.02347656 -56.71246094 18.02347656 -55.375 17.625 C-54.45332031 17.35171875 -53.53164062 17.0784375 -52.58203125 16.796875 C-50.72048458 16.22235833 -48.88182586 15.5717631 -47.0625 14.875 C-43.24891905 13.78540544 -39.55283399 13.51280392 -35.60546875 13.23046875 C-32.88071669 13.05175982 -32.88071669 13.05175982 -29.8125 12.25 C-26.26441906 11.93461503 -24.02816666 12.94371861 -20.83203125 14.40625 C-18.80313042 15.2639926 -18.80313042 15.2639926 -16 14 C-14.61521967 12.23947135 -13.47160626 10.39227023 -12.28125 8.49609375 C-11.64703125 7.75552734 -11.64703125 7.75552734 -11 7 C-10.01 7 -9.02 7 -8 7 C-5.84956615 5.2614436 -3.92023813 3.36000409 -1.9375 1.43359375 C-0.9784375 0.72396484 -0.9784375 0.72396484 0 0 Z M-62 20 C-61.34 20.33 -60.68 20.66 -60 21 C-60.99 21 -61.98 21 -63 21 C-62.67 20.67 -62.34 20.34 -62 20 Z " fill="#BDDDEE" transform="translate(299,105)"/>
<path d="M0 0 C1.66986559 3.33973118 1.96381777 6.44571914 1 10 C-1.53390929 12.83886056 -4.56203986 14.76624031 -7.75 16.8125 C-8.575 17.37130859 -9.4 17.93011719 -10.25 18.50585938 C-11.789435 19.54746096 -13.33654195 20.57787949 -14.89355469 21.59301758 C-17.04501404 22.99203452 -17.04501404 22.99203452 -19.14550781 24.6784668 C-21 26 -21 26 -23 26 C-23.05420701 23.43721301 -23.09377007 20.87558517 -23.125 18.3125 C-23.15013672 17.2306543 -23.15013672 17.2306543 -23.17578125 16.12695312 C-23.24946677 8.05838832 -23.24946677 8.05838832 -21 5 C-17.92896455 3.63766391 -14.77069961 2.91778066 -11.5 2.1875 C-10.61957031 1.97158203 -9.73914063 1.75566406 -8.83203125 1.53320312 C-2.47532242 0 -2.47532242 0 0 0 Z " fill="#52A9D7" transform="translate(223,139)"/>
<path d="M0 0 C9.70958905 1.23201355 9.70958905 1.23201355 19.29370117 0.06228638 C22.39877916 -0.62172124 25.34800623 -0.56487381 28.52734375 -0.56689453 C29.56732262 -0.56952301 29.56732262 -0.56952301 30.62831116 -0.57220459 C32.91889966 -0.57660205 35.20941071 -0.57368994 37.5 -0.5703125 C39.10221369 -0.57098675 40.70442728 -0.5719578 42.30664062 -0.57321167 C45.66911795 -0.5746863 49.03156873 -0.57254386 52.39404297 -0.56787109 C56.67275646 -0.56221075 60.9514067 -0.56543067 65.2301178 -0.57144356 C68.54356344 -0.57508707 71.85699455 -0.5738927 75.17044067 -0.57131577 C76.74585986 -0.57065501 78.32128043 -0.57144466 79.896698 -0.57379532 C88.83001267 -0.58418839 97.66745859 -0.37678702 106.5625 0.5625 C106.5625 0.8925 106.5625 1.2225 106.5625 1.5625 C81.83182031 3.79348262 57.05712669 3.75054393 32.24902344 3.74780273 C27.25137125 3.74769959 22.25385631 3.76154568 17.25623703 3.77857494 C13.38388412 3.78965458 9.51156544 3.79172348 5.6391983 3.79119301 C3.7939734 3.79237173 1.94874757 3.79678747 0.10353851 3.80452538 C-2.45353809 3.81427789 -5.01030162 3.8114703 -7.56738281 3.80541992 C-8.70324829 3.81384918 -8.70324829 3.81384918 -9.86206055 3.82244873 C-13.60542127 3.79984049 -15.23993755 3.6942083 -18.4375 1.5625 C-17.67824219 1.50191406 -16.91898438 1.44132813 -16.13671875 1.37890625 C-15.14285156 1.29511719 -14.14898437 1.21132812 -13.125 1.125 C-12.13886719 1.04378906 -11.15273437 0.96257812 -10.13671875 0.87890625 C-1.23621795 -0.16442308 -1.23621795 -0.16442308 0 0 Z " fill="#5E5E5E" transform="translate(205.4375,244.4375)"/>
<path d="M0 0 C0.33 0 0.66 0 1 0 C0.67 7.59 0.34 15.18 0 23 C-2.43375 22.525625 -4.8675 22.05125 -7.375 21.5625 C-8.13989746 21.41498291 -8.90479492 21.26746582 -9.69287109 21.11547852 C-14.77777778 20.11111111 -14.77777778 20.11111111 -17 19 C-17.33 19.66 -17.66 20.32 -18 21 C-18.33 20.34 -18.66 19.68 -19 19 C-19.99 19 -20.98 19 -22 19 C-22 18.34 -22 17.68 -22 17 C-22.66 17 -23.32 17 -24 17 C-24.33 17.99 -24.66 18.98 -25 20 C-25 19.34 -25 18.68 -25 18 C-26.32 17.67 -27.64 17.34 -29 17 C-28.85717773 15.15454102 -28.85717773 15.15454102 -28 13 C-25.53149414 11.67553711 -25.53149414 11.67553711 -22.28515625 10.52734375 C-21.12435547 10.10259766 -19.96355469 9.67785156 -18.76757812 9.24023438 C-17.54490234 8.81033203 -16.32222656 8.38042969 -15.0625 7.9375 C-12.65438541 7.08046081 -10.24925715 6.21496954 -7.84765625 5.33984375 C-6.77523682 4.96206787 -5.70281738 4.58429199 -4.59790039 4.19506836 C-1.71843742 3.14541832 -1.71843742 3.14541832 0 0 Z " fill="#68B4DC" transform="translate(200,142)"/>
<path d="M0 0 C0.66 0.33 1.32 0.66 2 1 C2 1.66 2 2.32 2 3 C-1.74568026 4.44892945 -5.4972704 5.88193818 -9.25 7.3125 C-10.81621094 7.91868164 -10.81621094 7.91868164 -12.4140625 8.53710938 C-19.51306857 11.23210242 -26.59347313 13.32779962 -34 15 C-32.19127427 13.14367622 -30.42402677 11.5474496 -28.375 9.9375 C-25.93968019 8.22133095 -25.93968019 8.22133095 -25 6 C-29.455 8.97 -29.455 8.97 -34 12 C-34.66 11.67 -35.32 11.34 -36 11 C-34.68 10.34 -33.36 9.68 -32 9 C-32 8.34 -32 7.68 -32 7 C-32.99 6.67 -33.98 6.34 -35 6 C-34.34773437 5.80664062 -33.69546875 5.61328125 -33.0234375 5.4140625 C-32.14945313 5.15367188 -31.27546875 4.89328125 -30.375 4.625 C-29.45332031 4.35171875 -28.53164062 4.0784375 -27.58203125 3.796875 C-25.72048458 3.22235833 -23.88182586 2.5717631 -22.0625 1.875 C-18.21504065 0.7757259 -14.47136442 0.51603991 -10.48828125 0.24609375 C-2.22680412 -0.57097542 -2.22680412 -0.57097542 0 0 Z M-37 7 C-36.34 7.33 -35.68 7.66 -35 8 C-35.99 8 -36.98 8 -38 8 C-37.67 7.67 -37.34 7.34 -37 7 Z " fill="#D4E7F2" transform="translate(274,118)"/>
<path d="M0 0 C4.53187252 0.58287143 9.09657759 0.44475432 13.65869141 0.42675781 C14.62742188 0.430625 15.59615234 0.43449219 16.59423828 0.43847656 C22.45677238 0.43065464 28.14585828 0.08943511 33.96020508 -0.67919922 C36.68744892 -0.70096582 37.98297856 0.01940133 40.34619141 1.30175781 C43.95874219 1.39871075 47.52153254 1.23440316 51.13134766 1.07910156 C54.71671507 1.32741984 55.10780868 1.74114221 57.34619141 4.30175781 C56.55549759 4.2995372 55.76480377 4.29731659 54.95014954 4.29502869 C47.49062225 4.2749734 40.03110809 4.25975696 32.57156086 4.24994564 C28.73674174 4.24473196 24.90194495 4.23766182 21.06713867 4.22631836 C17.36483224 4.21543564 13.66254725 4.20946956 9.96022606 4.20688057 C8.54927419 4.20503603 7.13832347 4.20143411 5.72738075 4.19602776 C3.74787164 4.18874597 1.76834086 4.18834914 -0.21118164 4.18823242 C-1.33703171 4.18601181 -2.46288177 4.1837912 -3.62284851 4.1815033 C-6.42552464 4.29270056 -8.92241529 4.70098992 -11.65380859 5.30175781 C-17.69896423 5.57838674 -23.72165763 5.62001358 -29.65380859 4.30175781 C-27.01243452 1.66726232 -25.70492799 1.30479303 -21.90380859 1.07910156 C-20.48665486 1.11743874 -19.06984995 1.17127757 -17.65380859 1.23925781 C-12.49308442 1.6540935 -12.49308442 1.6540935 -7.65380859 0.24316406 C-4.95962859 -1.02499489 -2.86800564 -0.44980519 0 0 Z " fill="#3D3D3D" transform="translate(233.65380859375,240.6982421875)"/>
<path d="M0 0 C0.66 0.33 1.32 0.66 2 1 C-7.8932815 11.01833702 -17.78331592 20.45766421 -29 29 C-29.33 28.34 -29.66 27.68 -30 27 C-33.96 27.495 -33.96 27.495 -38 28 C-38.33 27.34 -38.66 26.68 -39 26 C-38.45255127 25.71229736 -37.90510254 25.42459473 -37.34106445 25.12817383 C-31.61651297 22.04469033 -26.40206435 18.56099679 -21.1875 14.6875 C-14.24208611 9.59520872 -7.22574893 4.68965274 0 0 Z " fill="#EEF6FA" transform="translate(334,186)"/>
<path d="M0 0 C4.9074536 0.55485614 9.73307791 0.64555781 14.6640625 0.625 C15.45823578 0.62177734 16.25240906 0.61855469 17.07064819 0.61523438 C20.38187001 0.59682157 23.69299351 0.56949512 27.00415039 0.54199219 C38.37262015 0.45606442 49.63182986 0.74520888 60.97265625 1.5625 C60.97265625 2.2225 60.97265625 2.8825 60.97265625 3.5625 C51.11531915 3.60880347 41.25800785 3.64435907 31.40058422 3.66612434 C26.82357637 3.67656962 22.24664282 3.69074237 17.66967773 3.71337891 C13.25415121 3.73508079 8.83869624 3.74706302 4.4231205 3.75225449 C2.73698106 3.75595502 1.05084561 3.76318108 -0.63526344 3.77396011 C-2.99366399 3.78843983 -5.35176737 3.79047943 -7.71020508 3.78955078 C-8.41007538 3.79674133 -9.10994568 3.80393188 -9.83102417 3.81134033 C-13.4683794 3.79580228 -14.90809613 3.64199842 -18.02734375 1.5625 C-17.26808594 1.50191406 -16.50882813 1.44132813 -15.7265625 1.37890625 C-14.73269531 1.29511719 -13.73882812 1.21132812 -12.71484375 1.125 C-11.72871094 1.04378906 -10.74257812 0.96257812 -9.7265625 0.87890625 C-1.00068041 -0.14395402 -1.00068041 -0.14395402 0 0 Z " fill="#919191" transform="translate(205.02734375,244.4375)"/>
<path d="M0 0 C1.46566406 -0.03867188 1.46566406 -0.03867188 2.9609375 -0.078125 C5.625 0.25 5.625 0.25 7.4765625 1.578125 C8.625 3.25 8.625 3.25 8.625 6.25 C9.285 6.25 9.945 6.25 10.625 6.25 C10.625 6.91 10.625 7.57 10.625 8.25 C11.615 7.92 12.605 7.59 13.625 7.25 C13.955 7.58 14.285 7.91 14.625 8.25 C19.23277401 8.65957991 21.06912948 8.07017317 24.625 5.25 C25.615 5.58 26.605 5.91 27.625 6.25 C26.625 9.25 26.625 9.25 24.5 10.4375 C17.46321953 12.42615535 11.29841078 10.71737218 4.625 8.25 C4.295 7.92 3.965 7.59 3.625 7.25 C1.77608054 7.01636119 -0.07988031 6.83696365 -1.9375 6.6875 C-2.94941406 6.60371094 -3.96132812 6.51992187 -5.00390625 6.43359375 C-6.17759766 6.34271484 -6.17759766 6.34271484 -7.375 6.25 C-6.33276731 0.44327502 -5.92932673 0.09337522 0 0 Z " fill="#54AAD7" transform="translate(212.375,101.75)"/>
<path d="M0 0 C2.85475306 -0.08156437 5.70713565 -0.14076372 8.5625 -0.1875 C9.36236328 -0.21263672 10.16222656 -0.23777344 10.98632812 -0.26367188 C16.44794805 -0.33054885 20.12924103 0.5090481 25 3 C25 3.66 25 4.32 25 5 C27.64 5.66 30.28 6.32 33 7 C32 9 32 9 30.25 9.75 C27.32094849 10.07545017 25.74052245 9.09620898 23 8 C20.71586987 7.65467614 18.43638064 7.43150611 16.13671875 7.21484375 C13.71309762 6.97115241 11.3797755 6.51454605 9 6 C7.00102872 5.66055205 5.00124361 5.32578384 3 5 C3.33 4.34 3.66 3.68 4 3 C2.68 2.67 1.36 2.34 0 2 C0 1.34 0 0.68 0 0 Z " fill="#393939" transform="translate(176,227)"/>
<path d="M0 0 C1.175625 0.02030273 1.175625 0.02030273 2.375 0.04101562 C4.29196782 0.07608211 6.20857751 0.12987928 8.125 0.1875 C8.62 1.1775 8.62 1.1775 9.125 2.1875 C7.990625 2.47625 6.85625 2.765 5.6875 3.0625 C4.511875 3.43375 3.33625 3.805 2.125 4.1875 C1.795 4.8475 1.465 5.5075 1.125 6.1875 C-1.1328125 6.53125 -1.1328125 6.53125 -4 6.6875 C-7.40801554 6.92873662 -10.14233656 7.26723196 -13.4375 8.25 C-17.96594719 9.48503105 -22.21215587 9.35637564 -26.875 9.1875 C-24.40497362 7.54081575 -22.26139924 6.41066651 -19.5625 5.25 C-16.97038312 4.13263025 -14.57284655 3.00905274 -12.13671875 1.5703125 C-7.93755644 -0.20993116 -4.4988916 -0.14869218 0 0 Z " fill="#3B3B3C" transform="translate(311.875,226.8125)"/>
<path d="M0 0 C0.66 0 1.32 0 2 0 C2 0.66 2 1.32 2 2 C3.32 2.33 4.64 2.66 6 3 C6 3.66 6 4.32 6 5 C5.14277344 5.18175781 4.28554687 5.36351563 3.40234375 5.55078125 C-3.92981095 7.06146699 -3.92981095 7.06146699 -10.875 9.75 C-14.67634634 11.27053854 -17.05733145 10.88508886 -21 10 C-21.33 11.32 -21.66 12.64 -22 14 C-21.67 11.03 -21.34 8.06 -21 5 C-14.00998353 3.90248217 -7.02765937 2.82678345 0 2 C0 1.34 0 0.68 0 0 Z " fill="#7FBFE0" transform="translate(247,109)"/>
<path d="M0 0 C0.99 0.33 1.98 0.66 3 1 C3 1.66 3 2.32 3 3 C3.66 3 4.32 3 5 3 C5.33 3.66 5.66 4.32 6 5 C6.99 5 7.98 5 9 5 C9.33 6.98 9.66 8.96 10 11 C10.66 10.01 11.32 9.02 12 8 C12.474375 8.969375 12.94875 9.93875 13.4375 10.9375 C14.70193947 13.80477437 14.70193947 13.80477437 16 15 C16.45459858 17.65463121 16.70243238 20.32189138 17 23 C15.68 23.33 14.36 23.66 13 24 C12.49210937 23.0821875 11.98421875 22.164375 11.4609375 21.21875 C7.69369832 14.47921051 3.91263655 7.99192792 -1 2 C-0.67 1.34 -0.34 0.68 0 0 Z " fill="#65A9CD" transform="translate(271,74)"/>
<path d="M0 0 C4.14425088 -0.07465394 8.28813624 -0.12883721 12.43286133 -0.16479492 C13.84015734 -0.17979877 15.24740724 -0.20020863 16.65454102 -0.22631836 C18.68777907 -0.26307665 20.72039432 -0.27980984 22.75390625 -0.29296875 C23.97408447 -0.3086792 25.1942627 -0.32438965 26.45141602 -0.34057617 C30.59683032 0.05728093 33.27742067 1.18986188 37 3 C37 3.66 37 4.32 37 5 C33.10390391 4.86070975 29.20820038 4.71242069 25.3125 4.5625 C24.20970703 4.52318359 23.10691406 4.48386719 21.97070312 4.44335938 C20.90400391 4.40146484 19.83730469 4.35957031 18.73828125 4.31640625 C17.75899658 4.27974854 16.77971191 4.24309082 15.77075195 4.20532227 C13.10255283 4.00759952 10.61770916 3.53256564 8 3 C5.66698014 2.96175377 3.33288492 2.95425716 1 3 C0.67 2.01 0.34 1.02 0 0 Z " fill="#AFAFAF" transform="translate(156,223)"/>
<path d="M0 0 C0.495 0.99 0.495 0.99 1 2 C0.67 2.66 0.34 3.32 0 4 C-0.85464844 3.98839844 -1.70929688 3.97679687 -2.58984375 3.96484375 C-3.69457031 3.95582031 -4.79929687 3.94679687 -5.9375 3.9375 C-7.59072266 3.92009766 -7.59072266 3.92009766 -9.27734375 3.90234375 C-11.91447634 3.68737429 -11.91447634 3.68737429 -13 5 C-14.70563778 5.15740605 -16.41727244 5.25093392 -18.12890625 5.31640625 C-19.16337891 5.35830078 -20.19785156 5.40019531 -21.26367188 5.44335938 C-22.8965918 5.50233398 -22.8965918 5.50233398 -24.5625 5.5625 C-26.2012207 5.62727539 -26.2012207 5.62727539 -27.87304688 5.69335938 C-30.58189564 5.79982068 -33.29083992 5.90183516 -36 6 C-36 5.34 -36 4.68 -36 4 C-23.97417508 -0.06831098 -12.55184455 -0.14015707 0 0 Z " fill="#AEAEAE" transform="translate(340,222)"/>
<path d="M0 0 C1.46373047 0.01353516 1.46373047 0.01353516 2.95703125 0.02734375 C4.06111328 0.04474609 4.06111328 0.04474609 5.1875 0.0625 C5.6825 1.5475 5.6825 1.5475 6.1875 3.0625 C5.48625 3.02769531 4.785 2.99289063 4.0625 2.95703125 C-2.33056542 2.77462042 -7.04512406 3.34910856 -12.8125 6.0625 C-14.4367213 6.79339958 -16.0617323 7.52254662 -17.6875 8.25 C-18.42742187 8.59417969 -19.16734375 8.93835938 -19.9296875 9.29296875 C-21.8125 10.0625 -21.8125 10.0625 -23.8125 10.0625 C-23.8125 10.7225 -23.8125 11.3825 -23.8125 12.0625 C-25.7925 13.0525 -27.7725 14.0425 -29.8125 15.0625 C-26.96729367 8.71550126 -22.01169741 5.34575267 -15.6875 2.75 C-10.39629613 0.74678064 -5.6593682 -0.06818516 0 0 Z " fill="#52A9D7" transform="translate(193.8125,103.9375)"/>
<path d="M0 0 C0.33 0.66 0.66 1.32 1 2 C-3.03858153 3.48768614 -7.08135851 4.96362846 -11.125 6.4375 C-12.83816406 7.06881836 -12.83816406 7.06881836 -14.5859375 7.71289062 C-16.24882812 8.31713867 -16.24882812 8.31713867 -17.9453125 8.93359375 C-18.96125488 9.30540771 -19.97719727 9.67722168 -21.02392578 10.06030273 C-24.01135955 11.00358678 -26.90166748 11.56170916 -30 12 C-29.02738219 10.97334787 -28.01680311 9.98290968 -27 9 C-26.195625 8.175 -25.39125 7.35 -24.5625 6.5 C-18.05935636 1.12924455 -8.10662729 0.67555227 0 0 Z " fill="#E3F0F8" transform="translate(270,121)"/>
<path d="M0 0 C3.3 0.99 6.6 1.98 10 3 C10 3.33 10 3.66 10 4 C8.22496094 4.14695312 8.22496094 4.14695312 6.4140625 4.296875 C-5.14017898 5.33427484 -5.14017898 5.33427484 -16.0546875 9.09765625 C-20.07323757 10.96168249 -22.69785168 11.07553708 -27 10 C-27 9.01 -27 8.02 -27 7 C-25.865625 7.0825 -24.73125 7.165 -23.5625 7.25 C-19.17116484 7.27315291 -16.26446803 5.87221981 -12.38671875 3.95703125 C-8.38584278 2.35275201 -4.27249989 2.17839248 0 2 C0 1.34 0 0.68 0 0 Z " fill="#91C8E5" transform="translate(253,112)"/>
<path d="M0 0 C11.81324278 2.02037351 11.81324278 2.02037351 17 5 C17.9375 7.6875 17.9375 7.6875 18 10 C13.06746384 14.4701109 7.72176472 17.17389319 1 17.1875 C0.01 17.125625 -0.98 17.06375 -2 17 C0.62407011 15.57862869 3.2441895 14.57481735 6.0625 13.625 C9.43795295 12.39927686 11.21222885 11.2403352 13 8 C8.84148523 5.27097468 4.66091941 3.65897132 0 2 C0 1.34 0 0.68 0 0 Z " fill="#242424" transform="translate(349,224)"/>
<path d="M0 0 C1.29850432 2.13871299 2.03725814 3.47010641 1.859375 6 C1 8 1 8 -1.14453125 9.265625 C-2.02496094 9.59046875 -2.90539062 9.9153125 -3.8125 10.25 C-4.68519531 10.58515625 -5.55789063 10.9203125 -6.45703125 11.265625 C-9 12 -9 12 -13 12 C-12.67 10.68 -12.34 9.36 -12 8 C-12.66 7.67 -13.32 7.34 -14 7 C-13.01 6.67 -12.02 6.34 -11 6 C-11 5.34 -11 4.68 -11 4 C-8.69 4 -6.38 4 -4 4 C-4 3.34 -4 2.68 -4 2 C-2.68 2.33 -1.36 2.66 0 3 C0 2.01 0 1.02 0 0 Z " fill="#4E9CC6" transform="translate(264,96)"/>
<path d="M0 0 C-1.12535156 0.27263672 -1.12535156 0.27263672 -2.2734375 0.55078125 C-8.91295784 2.18139393 -15.47334807 3.96403115 -22 6 C-22 7.65 -22 9.3 -22 11 C-21.28972656 11.19335938 -20.57945312 11.38671875 -19.84765625 11.5859375 C-18.92855469 11.84632813 -18.00945312 12.10671875 -17.0625 12.375 C-16.14597656 12.63023437 -15.22945312 12.88546875 -14.28515625 13.1484375 C-12 14 -12 14 -11 16 C-16.77378925 15.5188509 -20.95859836 13.81532819 -26 11 C-26.25 8.6875 -26.25 8.6875 -26 6 C-21.95000679 2.30816946 -17.1759468 1.36209126 -12 0 C-11.15953125 -0.23203125 -10.3190625 -0.4640625 -9.453125 -0.703125 C-8.66421875 -0.90421875 -7.8753125 -1.1053125 -7.0625 -1.3125 C-6.35222656 -1.49425781 -5.64195312 -1.67601562 -4.91015625 -1.86328125 C-3 -2 -3 -2 0 0 Z " fill="#242424" transform="translate(155,225)"/>
<path d="M0 0 C0.99 0.33 1.98 0.66 3 1 C2.59007812 1.54269531 2.18015625 2.08539063 1.7578125 2.64453125 C1.21898437 3.35996094 0.68015625 4.07539062 0.125 4.8125 C-0.40867187 5.52019531 -0.94234375 6.22789063 -1.4921875 6.95703125 C-2.70814781 8.60456297 -3.86416141 10.29624211 -5 12 C-4.67 12.66 -4.34 13.32 -4 14 C-7.63 13.67 -11.26 13.34 -15 13 C-13.1875 10 -13.1875 10 -11 7 C-10.01 7 -9.02 7 -8 7 C-5.84956615 5.2614436 -3.92023813 3.36000409 -1.9375 1.43359375 C-1.298125 0.96050781 -0.65875 0.48742187 0 0 Z " fill="#D6E0E7" transform="translate(299,105)"/>
<path d="M0 0 C0 0.33 0 0.66 0 1 C-8.24164006 1.74348768 -16.48412682 2.19781939 -24.75 2.5625 C-26.20418335 2.62812134 -26.20418335 2.62812134 -27.68774414 2.69506836 C-33.4645462 2.94022852 -39.21806776 3.04163943 -45 3 C-45 2.34 -45 1.68 -45 1 C-39.57280836 -0.19197322 -34.22591774 -0.39523469 -28.6875 -0.625 C-27.09228516 -0.69255493 -27.09228516 -0.69255493 -25.46484375 -0.76147461 C-16.90267449 -1.07234443 -8.52789668 -0.81516659 0 0 Z " fill="#9C9C9C" transform="translate(312,245)"/>
<path d="M0 0 C0.85182861 -0.00193359 1.70365723 -0.00386719 2.58129883 -0.00585938 C3.49032959 -0.00134766 4.39936035 0.00316406 5.3359375 0.0078125 C6.26494873 0.00974609 7.19395996 0.01167969 8.15112305 0.01367188 C16.69474435 0.06617172 25.19213431 0.50757924 33.7109375 1.1328125 C33.7109375 1.7928125 33.7109375 2.4528125 33.7109375 3.1328125 C20.1809375 3.1328125 6.6509375 3.1328125 -7.2890625 3.1328125 C-7.2890625 2.4728125 -7.2890625 1.8128125 -7.2890625 1.1328125 C-4.51897305 0.20944935 -2.85793936 0.00426467 0 0 Z " fill="#9F9F9F" transform="translate(232.2890625,244.8671875)"/>
<path d="M0 0 C-2.82821334 0.94273778 -4.74911523 1.12400494 -7.6875 1.25 C-13.66049286 1.71376651 -18.98377741 3.39621912 -24.60424805 5.36035156 C-29.70185664 7.09938112 -29.70185664 7.09938112 -33 6 C-31.66540335 3.33080669 -29.99764016 3.06110817 -27.28808594 2.09594727 C-6.99924562 -4.66616375 -6.99924562 -4.66616375 0 0 Z " fill="#B2D6E9" transform="translate(269,118)"/>
<path d="M0 0 C0.99 0 1.98 0 3 0 C2.52354792 4.28806873 1.34097516 6.26647487 -2 9 C-2.66 9 -3.32 9 -4 9 C-4 9.66 -4 10.32 -4 11 C-3.34 11 -2.68 11 -2 11 C-3.4258086 14.45195767 -5.09746334 16.1014256 -8.125 18.25 C-8.84945313 18.77078125 -9.57390625 19.2915625 -10.3203125 19.828125 C-10.87460937 20.21484375 -11.42890625 20.6015625 -12 21 C-11.60818691 15.72559296 -8.69380586 12.70299276 -5.4375 8.8125 C-1.61436209 4.86066888 -1.61436209 4.86066888 0 0 Z " fill="#B1D1E3" transform="translate(301,93)"/>
<path d="M0 0 C6.29246169 -0.74098147 10.81988285 -0.75519213 16 3.1875 C18.95766584 5.81123582 21.54226812 8.2515466 23 12 C22.67 12.99 22.34 13.98 22 15 C20.02 13.68 18.04 12.36 16 11 C16.33 9.35 16.66 7.7 17 6 C11.30601106 3.90429574 6.04801071 2.54981916 0 2 C0 1.34 0 0.68 0 0 Z " fill="#1C84BB" transform="translate(239,78)"/>
<path d="M0 0 C0.66 0.66 1.32 1.32 2 2 C1.69650417 3.34043992 1.35412344 4.67203709 1 6 C0.95479442 8.50890989 0.95497919 10.99305162 1 13.5 C1.06947694 20.38453335 0.72669517 27.14830269 0 34 C-2.18020049 30.72969926 -2.25608928 29.74850222 -2.265625 25.95703125 C-2.26820313 24.96509766 -2.27078125 23.97316406 -2.2734375 22.95117188 C-2.26570312 21.91541016 -2.25796875 20.87964844 -2.25 19.8125 C-2.25773438 18.79607422 -2.26546875 17.77964844 -2.2734375 16.73242188 C-2.25812947 10.80438917 -1.71381459 5.67871105 0 0 Z " fill="#3A9DD1" transform="translate(153,115)"/>
<path d="M0 0 C0 0.33 0 0.66 0 1 C-0.68964844 1.09796875 -1.37929688 1.1959375 -2.08984375 1.296875 C-11.21945966 2.74959852 -18.50252455 5.61719711 -26 11 C-26.66 10.67 -27.32 10.34 -28 10 C-26.68 9.34 -25.36 8.68 -24 8 C-24 7.34 -24 6.68 -24 6 C-24.99 5.67 -25.98 5.34 -27 5 C-26.34773437 4.80664062 -25.69546875 4.61328125 -25.0234375 4.4140625 C-24.14945313 4.15367188 -23.27546875 3.89328125 -22.375 3.625 C-21.45332031 3.35300781 -20.53164062 3.08101563 -19.58203125 2.80078125 C-16.91334321 2.01243988 -16.91334321 2.01243988 -14.0625 0.8125 C-9.40550252 -0.42302994 -4.78990755 -0.15341341 0 0 Z M-29 6 C-28.34 6.33 -27.68 6.66 -27 7 C-27.99 7 -28.98 7 -30 7 C-29.67 6.67 -29.34 6.34 -29 6 Z " fill="#C6E2F0" transform="translate(266,119)"/>
<path d="M0 0 C1.77007714 -0.08114106 3.54122098 -0.13925505 5.3125 -0.1875 C6.29863281 -0.22230469 7.28476563 -0.25710937 8.30078125 -0.29296875 C11 0 11 0 12.85546875 1.32421875 C14 3 14 3 14 6 C14.66 6 15.32 6 16 6 C16 6.66 16 7.32 16 8 C15.01 7.67 14.02 7.34 13 7 C13 6.34 13 5.68 13 5 C8.05 4.67 3.1 4.34 -2 4 C-1.34 2.68 -0.68 1.36 0 0 Z " fill="#41A0D2" transform="translate(207,102)"/>
<path d="M0 0 C2.85475306 -0.08156437 5.70713565 -0.14076372 8.5625 -0.1875 C9.36236328 -0.21263672 10.16222656 -0.23777344 10.98632812 -0.26367188 C16.44794805 -0.33054885 20.12924103 0.5090481 25 3 C25 3.33 25 3.66 25 4 C16.4488728 4.27733386 8.41518047 3.52016163 0 2 C0 1.34 0 0.68 0 0 Z " fill="#535454" transform="translate(176,227)"/>
<path d="M0 0 C0.66 1.32 1.32 2.64 2 4 C3.32 3.34 4.64 2.68 6 2 C6.33 3.65 6.66 5.3 7 7 C5.71211992 7.53012738 4.41953322 8.0488329 3.125 8.5625 C2.04605469 8.99755859 2.04605469 8.99755859 0.9453125 9.44140625 C-1 10 -1 10 -3 9 C-3.1875 5.625 -3.1875 5.625 -3 2 C-2.01 1.34 -1.02 0.68 0 0 Z " fill="#78B4D4" transform="translate(290,88)"/>
<path d="M0 0 C0.7115625 -0.01224609 1.423125 -0.02449219 2.15625 -0.03710938 C5.934487 -0.0476828 8.79693658 0.07714832 12 2.1875 C12 2.8475 12 3.5075 12 4.1875 C4.08 3.8575 -3.84 3.5275 -12 3.1875 C-12 2.5275 -12 1.8675 -12 1.1875 C-8.06607877 -0.09307332 -4.09077625 0.00370541 0 0 Z " fill="#808080" transform="translate(181,223.8125)"/>
<path d="M0 0 C-0.33 0.66 -0.66 1.32 -1 2 C-8.59 2.33 -16.18 2.66 -24 3 C-24 2.34 -24 1.68 -24 1 C-16.178853 -1.78085227 -8.10026808 -1.75140931 0 0 Z " fill="#757676" transform="translate(328,225)"/>
<path d="M0 0 C0.80179687 0.00451172 1.60359375 0.00902344 2.4296875 0.01367188 C4.41149006 0.02546832 6.39325433 0.04340395 8.375 0.0625 C8.705 0.7225 9.035 1.3825 9.375 2.0625 C6.87572231 2.40220765 4.37580405 2.73438032 1.875 3.0625 C1.17890625 3.15789062 0.4828125 3.25328125 -0.234375 3.3515625 C-5.07200129 3.9786622 -9.74681196 4.15039528 -14.625 4.0625 C-9.5737396 0.18986703 -6.30134001 -0.06649141 0 0 Z " fill="#545455" transform="translate(311.625,226.9375)"/>
<path d="M0 0 C3.63 0.33 7.26 0.66 11 1 C11 3.31 11 5.62 11 8 C10.67 6.68 10.34 5.36 10 4 C7.69 4.66 5.38 5.32 3 6 C2.67 5.01 2.34 4.02 2 3 C-1.96 3 -5.92 3 -10 3 C-10 2.67 -10 2.34 -10 2 C-6.7 2 -3.4 2 0 2 C0 1.34 0 0.68 0 0 Z " fill="#8FC7E5" transform="translate(328,125)"/>
<path d="M0 0 C0.99 0.33 1.98 0.66 3 1 C3 1.66 3 2.32 3 3 C3.66 3 4.32 3 5 3 C5.33 3.66 5.66 4.32 6 5 C6.99 5 7.98 5 9 5 C9 6.98 9 8.96 9 11 C6 11 6 11 4.140625 9.35546875 C3.51671875 8.64003906 2.8928125 7.92460938 2.25 7.1875 C1.61578125 6.47980469 0.9815625 5.77210937 0.328125 5.04296875 C-0.11015625 4.36878906 -0.5484375 3.69460937 -1 3 C-0.67 2.01 -0.34 1.02 0 0 Z " fill="#2B8DC0" transform="translate(271,74)"/>
<path d="M0 0 C1.62283808 3.24567617 0.54725234 6.63839624 0.0625 10.125 C-0.03740234 10.87910156 -0.13730469 11.63320312 -0.24023438 12.41015625 C-0.48798404 14.27417753 -0.74328057 16.13719288 -1 18 C-1.66 18 -2.32 18 -3 18 C-3.99601222 12.06430556 -4.19382849 7.65776822 -2 2 C-1.34 1.34 -0.68 0.68 0 0 Z " fill="#53AAD7" transform="translate(163,122)"/>
<path d="M0 0 C-7.07264416 3.80834686 -13.0922027 4.25327465 -21 4 C-21 3.34 -21 2.68 -21 2 C-19.66195312 1.80083984 -19.66195312 1.80083984 -18.296875 1.59765625 C-17.12640625 1.42105469 -15.9559375 1.24445313 -14.75 1.0625 C-13.00976562 0.80146484 -13.00976562 0.80146484 -11.234375 0.53515625 C-8.14116912 0.07349349 -8.14116912 0.07349349 -5.71875 -0.59375 C-3.54877884 -1.10665228 -2.0965127 -0.67387908 0 0 Z " fill="#6FB8DE" transform="translate(247,112)"/>
<path d="M0 0 C1.32 0.66 2.64 1.32 4 2 C3.0919838 3.13199353 2.17316174 4.25532363 1.25 5.375 C0.73953125 6.00148438 0.2290625 6.62796875 -0.296875 7.2734375 C-2.08199481 9.08312318 -3.67949644 10.00117455 -6 11 C-5.55530671 5.96014269 -3.28656638 3.62365012 0 0 Z " fill="#BEDFF0" transform="translate(212,91)"/>
<path d="M0 0 C1.65 0.33 3.3 0.66 5 1 C4.38722388 3.96175123 3.74627478 5.38058783 2 8 C0.68 8 -0.64 8 -2 8 C-1.67 6.68 -1.34 5.36 -1 4 C-1.66 3.67 -2.32 3.34 -3 3 C-2.01 2.67 -1.02 2.34 0 2 C0 1.34 0 0.68 0 0 Z " fill="#56A5CF" transform="translate(253,100)"/>
<path d="M0 0 C0.66 0.33 1.32 0.66 2 1 C-1.96 4.96 -5.92 8.92 -10 13 C-10 10 -10 10 -8.5 8.3125 C-8.005 7.879375 -7.51 7.44625 -7 7 C-7.33 6.34 -7.66 5.68 -8 5 C-6.71475739 4.13619741 -5.42157581 3.28419631 -4.125 2.4375 C-3.40570313 1.96183594 -2.68640625 1.48617187 -1.9453125 0.99609375 C-1.30335938 0.66738281 -0.66140625 0.33867187 0 0 Z " fill="#DBE6EC" transform="translate(334,186)"/>
<path d="M0 0 C0.66 0.33 1.32 0.66 2 1 C3.33059914 4.99179743 2.81502739 7.26317891 1 11 C-1.52588702 8.63707344 -2.88820837 7.33537489 -4 4 C-3.01 3.67 -2.02 3.34 -1 3 C-0.67 2.01 -0.34 1.02 0 0 Z " fill="#50A0CA" transform="translate(282,82)"/>
<path d="M0 0 C5.61 0 11.22 0 17 0 C12.50783208 3.36912594 11.38802925 3.46448528 6 3 C2.5625 2 2.5625 2 0 1 C0 0.67 0 0.34 0 0 Z " fill="#838383" transform="translate(211,245)"/>
<path d="M0 0 C0.73605469 0.05220703 1.47210938 0.10441406 2.23046875 0.15820312 C4.02910629 0.28667723 5.82712909 0.42370949 7.625 0.5625 C7.625 0.8925 7.625 1.2225 7.625 1.5625 C0.09318582 2.31917376 -6.87780391 2.70614008 -14.375 1.5625 C-14.375 1.2325 -14.375 0.9025 -14.375 0.5625 C-9.42149325 -0.49226879 -4.99660651 -0.39304228 0 0 Z " fill="#919191" transform="translate(304.375,244.4375)"/>
<path d="M0 0 C0.33 0.66 0.66 1.32 1 2 C0.67 2.66 0.34 3.32 0 4 C-3.3 3.67 -6.6 3.34 -10 3 C-10 2.34 -10 1.68 -10 1 C-6.61981469 -0.04005702 -3.5219721 -0.08004482 0 0 Z " fill="#919191" transform="translate(340,222)"/>
<path d="M0 0 C2.4375 0.6875 2.4375 0.6875 4.4375 1.6875 C4.4375 2.3475 4.4375 3.0075 4.4375 3.6875 C1.05358307 4.75101675 -0.1429634 4.90192982 -3.375 3.25 C-4.096875 2.734375 -4.81875 2.21875 -5.5625 1.6875 C-2.5625 -0.3125 -2.5625 -0.3125 0 0 Z " fill="#D4DEE6" transform="translate(271.5625,117.3125)"/>
<path d="M0 0 C0.66 0 1.32 0 2 0 C0.5741914 3.45195767 -1.09746334 5.1014256 -4.125 7.25 C-5.21167969 8.03117187 -5.21167969 8.03117187 -6.3203125 8.828125 C-6.87460937 9.21484375 -7.42890625 9.6015625 -8 10 C-7.875 7.75 -7.875 7.75 -7 5 C-4 2.75 -4 2.75 -1 1 C-0.67 0.67 -0.34 0.34 0 0 Z " fill="#C0D6E3" transform="translate(297,104)"/>
<path d="M0 0 C0.33 1.65 0.66 3.3 1 5 C-0.98 5.66 -2.96 6.32 -5 7 C-5.33 5.68 -5.66 4.36 -6 3 C-2.25 0 -2.25 0 0 0 Z " fill="#8EBFDA" transform="translate(296,90)"/>
<path d="M0 0 C0.99 0.33 1.98 0.66 3 1 C-0.12621626 4.39417765 -2.56541027 6.6062718 -7 8 C-5.51218185 4.21282653 -3.38011591 2.22592999 0 0 Z " fill="#CCE1EC" transform="translate(299,105)"/>
<path d="M0 0 C2 2 2 2 2.125 5.125 C2.08375 6.07375 2.0425 7.0225 2 8 C-1.65316671 6.75023244 -2.78065836 6.32901247 -5 3 C-3.68 3 -2.36 3 -1 3 C-0.67 2.01 -0.34 1.02 0 0 Z " fill="#3C95C4" transform="translate(262,91)"/>
<path d="M0 0 C3.3 0.99 6.6 1.98 10 3 C10 3.33 10 3.66 10 4 C5.48382401 4.07654536 1.40914783 4.10228696 -3 3 C-2.01 2.67 -1.02 2.34 0 2 C0 1.34 0 0.68 0 0 Z " fill="#90C0DA" transform="translate(253,112)"/>
<path d="M0 0 C3.3 0 6.6 0 10 0 C9.01 1.485 9.01 1.485 8 3 C4.375 3.1875 4.375 3.1875 1 3 C0.67 2.01 0.34 1.02 0 0 Z " fill="#919191" transform="translate(156,223)"/>
<path d="M0 0 C1.32 0 2.64 0 4 0 C4 2.31 4 4.62 4 7 C3.67 5.68 3.34 4.36 3 3 C0.69 3.66 -1.62 4.32 -4 5 C-4.33 4.01 -4.66 3.02 -5 2 C-3.35 2 -1.7 2 0 2 C0 1.34 0 0.68 0 0 Z " fill="#67B4DC" transform="translate(335,126)"/>
<path d="M0 0 C0.66 0 1.32 0 2 0 C1.65930765 3.15140423 1.41923159 4.60781561 -0.9375 6.8125 C-3 8 -3 8 -5 8 C-5 7.34 -5 6.68 -5 6 C-4.34 6 -3.68 6 -3 6 C-2.690625 5.195625 -2.38125 4.39125 -2.0625 3.5625 C-1 1 -1 1 0 0 Z " fill="#3D9ED2" transform="translate(334,181)"/>
<path d="M0 0 C0 0.66 0 1.32 0 2 C0.99 2.33 1.98 2.66 3 3 C1.741875 2.87625 0.48375 2.7525 -0.8125 2.625 C-1.87404297 2.52058594 -1.87404297 2.52058594 -2.95703125 2.4140625 C-5 2 -5 2 -8 0 C-4.71023192 -1.09658936 -3.28696233 -0.79953138 0 0 Z " fill="#C6E3F2" transform="translate(247,133)"/>
<path d="M0 0 C0.99 0.33 1.98 0.66 3 1 C1.75023244 4.65316671 1.32901247 5.78065836 -2 8 C-2.66 7.34 -3.32 6.68 -4 6 C-2.68 4.02 -1.36 2.04 0 0 Z " fill="#89C4E4" transform="translate(201,103)"/>
<path d="M0 0 C1.32 0.66 2.64 1.32 4 2 C3.01 3.32 2.02 4.64 1 6 C-0.32 5.34 -1.64 4.68 -3 4 C-2.01 2.68 -1.02 1.36 0 0 Z " fill="#DCEDF6" transform="translate(212,91)"/>
<path d="M0 0 C0.66 0 1.32 0 2 0 C1.54917531 1.46067199 1.08906463 2.91848032 0.625 4.375 C0.36976563 5.18710938 0.11453125 5.99921875 -0.1484375 6.8359375 C-1 9 -1 9 -3 11 C-4 8 -4 8 -3.22265625 5.95703125 C-2.83980469 5.24933594 -2.45695312 4.54164063 -2.0625 3.8125 C-1.68222656 3.09707031 -1.30195313 2.38164062 -0.91015625 1.64453125 C-0.60980469 1.10183594 -0.30945313 0.55914062 0 0 Z " fill="#D3DDE5" transform="translate(347,174)"/>
<path d="M0 0 C1.52519276 0.08937803 3.04681929 0.24537146 4.5625 0.4375 C5.80193359 0.59025391 5.80193359 0.59025391 7.06640625 0.74609375 C7.70449219 0.82988281 8.34257812 0.91367188 9 1 C8.67 1.66 8.34 2.32 8 3 C4.625 3.125 4.625 3.125 1 3 C0.34 2.34 -0.32 1.68 -1 1 C-0.67 0.67 -0.34 0.34 0 0 Z " fill="#707070" transform="translate(319,224)"/>
<path d="M0 0 C6.6 0.6 6.6 0.6 9 3 C2.375 3.25 2.375 3.25 -1 1 C-0.67 0.67 -0.34 0.34 0 0 Z " fill="#8B8B8B" transform="translate(311,224)"/>
<path d="M0 0 C0 1.32 0 2.64 0 4 C-1.8125 4.625 -1.8125 4.625 -4 5 C-4.99 4.34 -5.98 3.68 -7 3 C-2.25 0 -2.25 0 0 0 Z " fill="#E7EEF3" transform="translate(295,114)"/>
<path d="M0 0 C1.32257813 0.19142578 1.32257813 0.19142578 2.671875 0.38671875 C4.00992188 0.56654297 4.00992188 0.56654297 5.375 0.75 C6.05046875 0.85699219 6.7259375 0.96398437 7.421875 1.07421875 C7.421875 1.40421875 7.421875 1.73421875 7.421875 2.07421875 C2.801875 2.40421875 -1.818125 2.73421875 -6.578125 3.07421875 C-2.578125 0.07421875 -2.578125 0.07421875 0 0 Z " fill="#61B1DA" transform="translate(191.578125,105.92578125)"/>
<path d="M0 0 C-2 2 -2 2 -3.9453125 2.1953125 C-5.96354167 2.13020833 -7.98177083 2.06510417 -10 2 C-10 1.34 -10 0.68 -10 0 C-6.42355152 -1.2380014 -3.66305234 -0.74926071 0 0 Z " fill="#757575" transform="translate(179,225)"/>
<path d="M0 0 C0 0.99 0 1.98 0 3 C-3.465 4.485 -3.465 4.485 -7 6 C-6 3 -6 3 -2.9375 1.3125 C-1.968125 0.879375 -0.99875 0.44625 0 0 Z " fill="#DBE8EF" transform="translate(297,110)"/>
<path d="M0 0 C-0.33 0.99 -0.66 1.98 -1 3 C-3.97 2.67 -6.94 2.34 -10 2 C-10 1.67 -10 1.34 -10 1 C-6.56484998 0.37542727 -3.50935186 0 0 0 Z " fill="#888888" transform="translate(300,244)"/>
</svg>
